<?xml version="1.0" encoding="UTF-8" standalone="no"?>
<svg
   xmlns:dc="http://purl.org/dc/elements/1.1/"
   xmlns:cc="http://creativecommons.org/ns#"
   xmlns:rdf="http://www.w3.org/1999/02/22-rdf-syntax-ns#"
   xmlns:svg="http://www.w3.org/2000/svg"
   xmlns="http://www.w3.org/2000/svg"
   viewBox="0 0 588 221.33333"
   height="221.33333"
   width="588"
   xml:space="preserve"
   id="svg2"
   version="1.1"><metadata
     id="metadata8"><rdf:RDF><cc:Work
         rdf:about=""><dc:format>image/svg+xml</dc:format><dc:type
           rdf:resource="http://purl.org/dc/dcmitype/StillImage" /></cc:Work></rdf:RDF></metadata><defs
     id="defs6" /><g
     transform="matrix(1.3333333,0,0,-1.3333333,0,221.33333)"
     id="g10"><g
       transform="scale(0.1)"
       id="g12"><path
         id="path14"
         style="fill:#e6e6e6;fill-opacity:1;fill-rule:evenodd;stroke:none"
         d="m 4369.3,1036.41 v -20.32 c 11.48,-21.641 17.26,-44.328 17.26,-68.039 -3.4,-69.77 -47.42,-127.973 -131.99,-174.692 -85.27,-46.64 -192.3,-70.699 -320.9,-72.031 -127.93,1.332 -234.57,25.391 -319.84,72.031 -84.65,46.719 -128.6,104.922 -131.99,174.692 0,31.789 9.84,61.209 29.41,88.359 0,4.68 0,9.76 0,15.23 -31.09,-34.61 -47.03,-72.109 -47.66,-112.73 3.32,-73.129 49.42,-133.75 138.01,-181.762 88.71,-48.789 199.38,-74.136 332.07,-76.128 133.36,1.992 244.42,27.031 333.05,75.109 88.67,48.711 134.76,109.652 138.08,182.781 -0.62,34.488 -12.53,67.03 -35.5,97.5" /><path
         id="path16"
         style="fill:#b8babd;fill-opacity:1;fill-rule:evenodd;stroke:none"
         d="m 4368.24,974.449 c -0.62,-6.129 -1.64,-12.219 -3.01,-18.32 -4.06,-66.328 -46.71,-121.129 -127.96,-164.449 -81.22,-44.02 -182.47,-67.032 -303.6,-69.102 -122.54,2.07 -224.41,25.082 -305.62,69.102 -81.88,44.648 -124.26,100.511 -126.96,167.539 0,16.871 3.09,33.16 9.14,48.711 0,8.16 0,17.62 0,28.48 -18.98,-27.78 -28.71,-57.191 -29.45,-88.359 3.44,-69.77 47.77,-127.973 133.05,-174.692 84.65,-46.64 191.25,-70.699 319.84,-72.031 127.97,1.332 234.57,25.391 319.88,72.031 85.28,46.719 129.3,104.922 132,174.692 0,23.711 -5.39,46.398 -16.25,68.039 v -37.61 l -1.06,-4.031" /><path
         id="path18"
         style="fill:#706e73;fill-opacity:1;fill-rule:evenodd;stroke:none"
         d="m 3933.67,722.578 c 121.13,2.07 222.38,25.082 303.6,69.102 81.25,43.32 123.9,98.121 127.96,164.449 -13.55,-60.231 -59.88,-111.328 -139.14,-153.277 -78.47,-41.954 -174.29,-63.711 -287.34,-65.043 -121.13,2.07 -222.03,27.461 -302.54,76.14 -81.25,48.082 -123.2,104.961 -125.98,170.66 0,1.993 0,9.84 0,23.321 -6.05,-15.551 -9.14,-31.84 -9.14,-48.711 3.44,-67.028 45.71,-122.578 126.96,-166.52 81.21,-44.73 183.08,-68.051 305.62,-70.121" /><path
         id="path20"
         style="fill:#b32117;fill-opacity:1;fill-rule:evenodd;stroke:none"
         d="m 3510.23,1007.93 c 0,-12.852 0,-20.309 0,-22.309 3.4,-66.402 45.36,-123.59 125.98,-171.672 80.51,-48.679 181.41,-74.07 302.54,-76.14 113.05,2.07 209.22,24.031 288.36,66.019 78.55,41.953 124.96,93.121 139.14,153.32 0.66,5.391 1.37,11.172 1.99,17.301 l 1.06,4.031 v 140.11 c -0.67,14.93 -3.75,28.48 -9.14,40.63 4.06,-12.15 6.44,-24.69 7.14,-37.54 -6.13,-75.82 -68.78,-134.059 -187.85,-174.692 0.63,-0.617 0.94,-0.617 0.94,0 -3.32,-10.148 -35.55,-21.949 -96.44,-35.539 -62.31,-8.09 -96.49,-8.09 -102.5,0 -13.56,-0.629 -27.47,-1.019 -41.65,-1.019 -8.82,0 -17.92,0 -27.46,0 -13.47,-10.16 -72.73,-5.078 -177.69,15.23 -48.71,14.262 -87.66,30.86 -116.76,49.809 -26.44,18.242 -39.61,29.761 -39.61,34.531 -41.95,32.42 -63.59,69.73 -64.96,111.68 0.63,12.85 3.01,25.39 7.07,37.54 -5.39,-12.15 -8.44,-25.7 -9.14,-40.63 0,-5.39 0,-27.69 0,-66.95 -0.63,-4.76 -1.02,-9.84 -1.02,-15.23 0,-10.16 0,-19.69 0,-28.48" /><path
         id="path22"
         style="fill:#ee3023;fill-opacity:1;fill-rule:evenodd;stroke:none"
         d="m 3578.28,1010 c 0,0.62 0,1.02 0,1.02 2.07,0.62 17.62,-6.41 46.72,-21.329 29.77,-14.921 68.4,-29.14 115.74,-42.703 103.64,-20.937 160.82,-32.847 171.6,-35.539 8.79,-0.629 17.93,-1.019 27.46,-1.019 14.18,0 27.74,0.39 40.59,1.019 6.13,5.391 39.3,12.531 99.49,21.36 58.24,12.191 91.41,16.882 99.57,14.179 119.07,40.633 181.41,98.872 186.8,174.692 0,12.85 -2.38,25.39 -7.11,37.54 -20.31,50.74 -68.4,92.07 -144.14,123.9 -76.56,31.8 -168.28,48.4 -275.2,49.73 -106.95,-1.33 -198.32,-17.93 -274.18,-49.73 -76.48,-31.83 -124.92,-73.16 -145.23,-123.9 -4.69,-12.15 -7.07,-24.69 -7.07,-37.54 1.37,-41.33 23.01,-78.56 64.96,-111.68" /><path
         id="path24"
         style="fill:#ffffff;fill-opacity:1;fill-rule:evenodd;stroke:none"
         d="m 3740.74,946.988 c -47.34,13.563 -85.97,27.782 -115.74,42.703 -28.48,14.919 -44.02,21.949 -46.72,21.329 0,-0.71 0,-1.02 0,-1.02 -0.7,-4.77 12.54,-16.289 39.61,-34.531 28.48,-18.949 67.34,-35.547 116.76,-49.809 104.96,-20.308 164.22,-25 177.69,-14.211 -10.78,2.692 -67.96,14.602 -171.6,35.539" /><path
         id="path26"
         style="fill:#ffffff;fill-opacity:1;fill-rule:evenodd;stroke:none"
         d="m 4079.88,932.809 c -59.57,-8.829 -92.42,-15.969 -98.43,-21.36 6.71,-8.09 40.93,-8.09 102.5,0 61.64,13.59 93.75,25.071 96.44,34.531 0,0.7 0,1.008 0,1.008 -8.09,2.071 -41.56,-2.687 -100.51,-14.179" /><path
         id="path28"
         style="fill:#e6e6e6;fill-opacity:1;fill-rule:evenodd;stroke:none"
         d="m 3417.89,1048.55 c -0.7,36.57 -13.87,71.06 -39.65,103.6 v -18.32 c 14.26,-24.38 21.33,-49.42 21.33,-75.12 -3.32,-70.39 -47.38,-128.94 -131.99,-175.659 -85.31,-46.02 -192.23,-70.039 -320.9,-72.11 -127.89,2.071 -234.49,26.09 -319.84,72.11 -84.57,46.719 -128.6,105.269 -132.04,175.659 0,28.48 8.52,55.51 25.4,81.21 -0.63,4.77 -0.63,10.16 0,16.25 -28.4,-33.12 -42.93,-68.98 -43.64,-107.62 3.44,-73.081 49.42,-133.671 138.13,-181.749 88.67,-48.711 199.33,-74.102 331.99,-76.18 133.36,2.078 244.41,27.469 333.09,76.18 88.71,48.078 134.72,108.668 138.12,181.749" /><path
         id="path30"
         style="fill:#b8babd;fill-opacity:1;fill-rule:evenodd;stroke:none"
         d="m 3378.24,1087.19 c 0.71,-6.14 1.33,-12.23 2.03,-18.36 -3.39,-67.03 -45.66,-122.85 -126.91,-167.541 -81.25,-43.949 -183.09,-67.027 -305.66,-68.988 -122.47,1.961 -224.42,25.039 -305.67,68.988 -81.83,44.691 -124.14,100.511 -126.91,167.541 0,10.9 1.36,21.68 4.14,32.54 0.62,8.08 0.94,20.62 0.94,37.54 -16.88,-25.71 -25.4,-52.78 -25.4,-81.25 3.44,-69.73 47.78,-127.89 133.05,-174.609 84.65,-46.723 191.25,-71.063 319.85,-73.129 127.96,2.066 234.57,26.406 319.88,73.129 85.27,46.719 129.3,104.879 131.99,174.609 0,26.4 -7.07,51.48 -21.33,75.19 v -45.66" /><path
         id="path32"
         style="fill:#706e73;fill-opacity:1;fill-rule:evenodd;stroke:none"
         d="m 2946.68,832.301 c 122.54,1.328 224.41,24.34 305.66,68.988 81.21,44.691 123.6,100.511 126.92,167.541 -0.63,6.13 -1.37,12.22 -1.99,18.36 v -1.06 c -6.84,-64.33 -50.12,-119.45 -130,-165.54 -80.55,-46.02 -180.39,-70.039 -299.57,-72.039 -121.84,2.699 -223.05,28.09 -303.6,76.14 -80.51,48.707 -122.15,105.929 -124.84,171.599 -0.71,0.62 -0.71,2.38 0,5.08 -3.44,-10.86 -5.08,-21.64 -5.08,-32.54 3.32,-67.03 45.7,-122.85 126.91,-167.541 81.25,-44.648 183.09,-67.66 305.59,-68.988" /><path
         id="path34"
         style="fill:#357a28;fill-opacity:1;fill-rule:evenodd;stroke:none"
         d="m 2519.26,1102.42 c 0,-3.44 0,-5.08 0,-5.08 3.32,-66.4 45.27,-123.59 125.9,-171.68 80.5,-48.711 181.4,-74.101 302.54,-76.172 119.18,2.071 219.02,26.102 299.57,72.114 80.58,46.019 123.9,100.898 130,164.528 v 1.99 l 0.97,2.08 v 140.07 c 0,14.93 -3.04,28.48 -9.14,40.63 4.06,-12.15 6.41,-24.69 7.15,-37.54 -6.13,-75.82 -68.71,-134.06 -187.85,-174.65 0.62,-0.66 1.01,-1.05 1.01,-1.05 -3.39,-9.46 -35.54,-20.94 -96.44,-34.5 -62.31,-8.08 -96.49,-8.08 -102.58,0 -13.55,-0.66 -27.15,-1.05 -40.62,-1.05 -9.54,0 -18.95,0 -28.48,0 -13.48,-10.16 -72.74,-5.39 -177.7,14.3 -48.71,14.84 -87.65,31.79 -116.75,50.78 -26.37,18.24 -39.61,29.72 -39.61,34.49 -41.96,32.46 -63.64,69.73 -64.96,111.68 0.7,12.85 3,25.39 7.14,37.54 -5.46,-12.15 -8.51,-25.7 -9.21,-40.63 0,-6.72 -0.32,-31.4 -0.94,-74.1 0.62,-6.09 0.62,-11.79 0,-17.26 0,-16.92 0,-29.14 0,-36.49" /><path
         id="path36"
         style="fill:#47a83f;fill-opacity:1;fill-rule:evenodd;stroke:none"
         d="m 2587.23,1120.66 c 0,0 0,0.32 0,1.02 2.07,0.62 17.61,-6.41 46.72,-21.33 29.76,-14.92 68.39,-29.14 115.74,-42.69 103.63,-20.94 160.82,-32.78 171.6,-35.55 8.79,-0.63 18.01,-0.94 27.46,-0.94 14.18,0 27.73,0.31 40.59,0.94 6.13,5.47 39.29,12.54 99.49,21.37 58.24,12.18 91.4,16.95 99.57,14.18 119.14,40.62 181.4,98.86 186.8,174.68 0,12.86 -2.39,25.39 -7.11,37.62 -20.32,50.74 -68.32,91.99 -144.14,123.83 -76.49,31.8 -168.29,48.4 -275.2,49.73 -106.95,-1.33 -198.32,-17.93 -274.18,-49.73 -76.48,-31.84 -124.84,-73.09 -145.16,-123.83 -4.76,-12.23 -7.14,-24.76 -7.14,-37.62 1.32,-41.32 23,-78.55 64.96,-111.68" /><path
         id="path38"
         style="fill:#ffffff;fill-opacity:1;fill-rule:evenodd;stroke:none"
         d="m 2749.69,1057.66 c -47.35,13.55 -85.98,27.77 -115.74,42.69 -28.4,14.92 -44.03,21.95 -46.72,21.33 0,-0.7 0,-1.02 0,-1.02 -0.63,-4.76 12.54,-16.28 39.61,-34.53 29.1,-18.94 68.04,-35.54 116.75,-49.72 104.96,-20.32 164.22,-25.08 177.7,-14.3 -10.78,2.77 -67.97,14.61 -171.6,35.55" /><path
         id="path40"
         style="fill:#ffffff;fill-opacity:1;fill-rule:evenodd;stroke:none"
         d="m 3087.89,1044.49 c -59.57,-8.79 -92.42,-15.94 -98.55,-21.33 6.75,-8.08 40.93,-8.08 102.57,0 61.57,13.56 93.79,25.04 96.49,34.5 0,0.7 0,1.05 0,1.05 -8.17,2.03 -41.64,-2.73 -100.51,-14.22" /><path
         id="path42"
         style="fill:#e6e6e6;fill-opacity:1;fill-rule:evenodd;stroke:none"
         d="m 3620.98,461.68 c 14.18,-24.379 21.25,-49.45 21.25,-75.16 -3.32,-70.43 -47.35,-128.981 -132,-175.7 -85.27,-46.718 -192.22,-70.742 -320.82,-72.109 -127.96,2.07 -234.57,26.09 -319.84,72.109 -84.65,46.719 -128.67,105.27 -131.99,175.7 0,28.402 8.4,55.468 25.35,81.25 -0.7,4.691 -0.7,10.16 0,16.179 -28.48,-33.168 -42.97,-69.027 -43.71,-107.578 3.44,-73.133 49.45,-133.75 138.12,-181.801 88.71,-48.711 199.38,-74.101 332.07,-76.172 133.36,2.071 244.34,27.461 333.05,76.172 88.67,48.051 134.69,108.668 138.09,181.801 -0.71,36.52 -13.87,70.699 -39.57,102.5 V 461.68" /><path
         id="path44"
         style="fill:#b8babd;fill-opacity:1;fill-rule:evenodd;stroke:none"
         d="m 3620.98,413.91 c 0.62,-6.101 1.32,-11.84 1.99,-17.23 -3.36,-67.032 -45.7,-122.852 -126.95,-167.539 -81.22,-44.731 -183.09,-67.731 -305.63,-69.102 -122.5,1.371 -224.37,24.371 -305.59,69.102 -81.95,44.687 -124.21,100.507 -126.95,167.539 0,10.82 1.37,21.679 4.06,32.461 0.63,8.789 1.02,21.328 1.02,37.621 -16.95,-25.711 -25.35,-52.852 -25.35,-81.25 3.32,-70.434 47.65,-128.672 132.93,-174.692 84.65,-46.718 191.29,-71.05 319.88,-73.05 127.93,2 234.57,26.332 319.84,73.05 85.36,46.02 129.3,104.258 132,174.692 0,26.398 -7.07,51.398 -21.25,75.109 V 413.91" /><path
         id="path46"
         style="fill:#706e73;fill-opacity:1;fill-rule:evenodd;stroke:none"
         d="m 3190.39,160.039 c 122.54,1.371 224.41,24.371 305.63,69.102 81.25,44.687 123.59,100.507 126.95,167.539 -0.67,5.39 -1.37,11.129 -1.99,17.23 v -3.012 c -6.84,-63.628 -50.16,-118.519 -130.04,-164.527 -80.51,-46.019 -180.39,-70.043 -299.53,-72.109 -121.84,2.066 -223.09,27.457 -303.6,76.168 -80.51,48.05 -122.15,105.23 -124.88,171.64 -0.7,0.629 -0.7,3.012 0,7.071 -3.4,-10.782 -5.08,-21.641 -5.08,-32.461 3.36,-67.032 45.7,-122.852 126.95,-167.539 81.22,-44.731 183.09,-67.731 305.59,-69.102" /><path
         id="path48"
         style="fill:#0063a3;fill-opacity:1;fill-rule:evenodd;stroke:none"
         d="m 2762.93,429.141 c 0,-4.059 0,-6.442 0,-7.071 3.36,-66.41 45.31,-123.59 125.9,-171.64 80.55,-48.711 181.44,-74.102 302.58,-76.168 119.14,2.066 219.02,26.09 299.53,72.109 80.62,46.008 123.9,100.899 130.04,164.527 l 0.93,3.012 v 141.129 c -0.62,14.922 -3.71,28.481 -9.1,40.621 4.03,-12.14 6.41,-24.68 7.11,-37.539 -6.09,-75.82 -68.67,-134.062 -187.85,-174.68 0.66,0 1.05,0 1.05,0 -3.39,-10.16 -35.54,-21.961 -96.48,-35.55 -62.26,-8.09 -96.44,-8.09 -102.54,0 -13.59,-0.621 -27.46,-1.012 -41.68,-1.012 -8.79,0 -17.93,0.391 -27.42,1.012 -13.52,-11.481 -72.77,-6.719 -177.7,14.218 -48.71,14.262 -87.65,30.86 -116.79,49.801 -26.33,18.25 -39.57,29.77 -39.57,34.539 -41.96,32.422 -63.64,69.723 -64.96,111.672 0.7,12.859 3,25.399 7.11,37.539 -5.47,-12.14 -8.48,-25.699 -9.18,-40.621 0,-6.019 -0.32,-30.078 -0.98,-72.027 0.66,-5.473 0.66,-10.864 0,-16.25 0,-16.293 0,-28.832 0,-37.621" /><path
         id="path50"
         style="fill:#11b3e8;fill-opacity:1;fill-rule:evenodd;stroke:none"
         d="m 2830.94,446.449 c 0,0.621 0,1.012 0,1.012 2.07,0.629 17.61,-6.41 46.72,-21.332 29.76,-14.918 68.39,-29.141 115.74,-42.688 103.59,-20.941 160.78,-32.851 171.6,-35.55 8.79,-0.621 18.01,-1.012 27.42,-1.012 14.22,0 27.78,0.391 40.63,1.012 6.09,5.39 39.25,12.539 99.49,21.371 58.2,12.187 91.37,16.867 99.53,14.179 119.18,40.618 181.45,98.86 186.84,174.68 0,12.859 -2.39,25.399 -7.15,37.539 -19.57,50.75 -67.66,92.07 -144.14,123.91 -76.45,31.801 -168.24,48.399 -275.2,49.731 -106.91,-1.332 -198.32,-17.93 -274.14,-49.731 -76.48,-31.84 -124.88,-73.16 -145.19,-123.91 -4.73,-12.14 -7.11,-24.68 -7.11,-37.539 1.32,-41.32 23,-78.512 64.96,-111.672" /><path
         id="path52"
         style="fill:#ffffff;fill-opacity:1;fill-rule:evenodd;stroke:none"
         d="m 2993.4,383.441 c -47.35,13.547 -85.98,27.77 -115.74,42.688 -28.4,14.922 -44.03,21.961 -46.72,21.332 0,-0.699 0,-1.012 0,-1.012 -0.63,-4.769 12.54,-16.289 39.57,-34.539 28.47,-18.941 67.34,-35.539 116.79,-49.801 104.93,-20.308 164.18,-25 177.7,-14.218 -10.82,2.699 -68.01,14.609 -171.6,35.55" /><path
         id="path54"
         style="fill:#ffffff;fill-opacity:1;fill-rule:evenodd;stroke:none"
         d="m 3331.56,370.27 c -59.57,-8.79 -92.42,-15.93 -98.51,-21.321 6.75,-8.09 40.93,-8.09 102.57,0 61.57,13.551 93.76,25.071 96.45,34.492 0,0.7 0,1.047 0,1.047 -8.16,2.032 -41.64,-2.687 -100.51,-14.218" /><path
         id="path56"
         style="fill:#e6e6e6;fill-opacity:1;fill-rule:evenodd;stroke:none"
         d="m 1899.84,1160.23 109.65,219.34 -9.14,11.21 -113.75,-229.53 13.24,-1.02" /><path
         id="path58"
         style="fill:#e6e6e6;fill-opacity:1;fill-rule:evenodd;stroke:none"
         d="M 2359.8,850.551 C 2319.18,753.75 2263.01,666.41 2191.21,588.59 2118.79,510.039 2076.52,466.41 2064.3,457.621 l -3.01,-2.07 -4.06,-1.02 c -49.42,-8.082 -136.45,-12.152 -260.98,-12.152 -80.51,0 -155.31,0.941 -224.41,3.012 -69.03,2.07 -114.73,3.75 -137.11,5.078 -71.06,-98.828 -148.25,-190.239 -231.49,-274.141 -83.9,-83.9491 -130,-129.3397 -138.08,-136.0585 l -5.08,-3.0781 -5.08,-0.9805 c -79.879,-4.7617 -155.738,-7.1093 -227.422,-7.1093 -0.738,0 -0.738,0 0,0 C 651.52,31.8008 524.609,41.9492 446.801,59.5313 368.871,77.7695 329.691,88.6719 328.98,92.0703 l -4.058,1.9883 -1.012,-17.2188 9.102,-4.1406 c 0.738,-4.0273 40,-14.8086 117.808,-32.4297 77.809,-18.3203 204.77,-28.789 380.782,-31.48044 72.418,0 148.597,2.69144 228.478,8.08984 h 5.08 l 4.02,4.1016 c 8.83,6.0508 55.23,51.0898 139.14,135.0395 83.95,84.64 161.13,176.32 231.48,275.191 23.01,-0.742 68.72,-2.07 137.11,-4.063 69.11,-2.769 143.91,-4.097 224.42,-4.097 125.27,0 212.5,4.097 261.95,12.179 l 4.1,1.059 3.01,3.012 c 12.23,8.16 54.53,51.48 126.95,130 71.8,78.469 127.93,166.519 168.56,264.019 l 1.99,5.078 -8.09,13.161 v -1.008" /><path
         id="path60"
         style="fill:#e6e6e6;fill-opacity:1;fill-rule:evenodd;stroke:none"
         d="M 430.512,580.43 C 312.699,595.352 214.262,611.602 135,629.219 56.4805,646.84 15.2305,656.559 11.1719,658.629 L 6.08984,659.691 3.01172,643.398 14.2188,639.379 C 18.2383,638.012 57.8086,628.91 133.051,611.91 208.789,595 303.59,579.059 417.34,564.219 l 13.172,16.211" /><path
         id="path62"
         style="fill:#b8babd;fill-opacity:1;fill-rule:evenodd;stroke:none"
         d="m 2041.99,486.02 c -54.18,-7.469 -130.31,-11.489 -228.44,-12.231 -97.5,0 -186.91,1.371 -268.16,4.141 -81.21,2.691 -124.14,4.371 -128.91,5.082 C 1345.43,382.809 1267.5,290.391 1182.97,205.738 1097.66,121.172 1051.25,76.1289 1043.83,70.7383 835.98,59.2188 676.602,60.5898 565.551,74.7695 454.57,88.9805 383.16,102.539 351.371,115.391 368.238,107.301 414.961,96.1289 491.449,81.9102 567.93,67.6211 680,59.5313 827.578,57.5 c 69.723,0.6992 143.16,3.0898 220.272,7.1094 22.38,19.6094 72.81,69.7306 151.37,150.2696 79.18,80.59 150.55,166.172 214.18,256.961 l 5.08,6.09 h 8.16 c 5.39,0 45,-1.371 118.75,-4.141 73.87,-2.699 156.76,-4.019 248.79,-4.019 119.88,0 203.79,3.71 251.87,11.171 19.61,16.25 62.58,60.938 128.91,134.059 65.7,73.09 117.19,152.969 154.38,239.57 l -1.02,2.071 C 2284.38,762.539 2227.46,678.238 2157.73,603.832 2088.01,529.34 2049.38,490.082 2041.99,486.02" /><path
         id="path64"
         style="fill:#b8babd;fill-opacity:1;fill-rule:evenodd;stroke:none"
         d="m 1970.94,1394.8 -1.06,2.08 -116.76,-233.56 h 3.01 l 114.81,231.48" /><path
         id="path66"
         style="fill:#b8babd;fill-opacity:1;fill-rule:evenodd;stroke:none"
         d="M 32.4609,683.012 V 681.02 C 56.8789,674.18 107.27,663.012 183.789,647.461 259.57,631.91 348.98,618.012 451.879,605.82 l 3,3.09 C 356.762,619.691 269.73,632.539 193.949,647.461 118.75,662.379 64.9609,674.18 32.4609,683.012" /><path
         id="path68"
         style="fill:#b8babd;fill-opacity:1;fill-rule:evenodd;stroke:none"
         d="m 431.559,580.43 21.332,25.39 C 349.301,618.012 259.57,631.91 183.789,647.461 107.969,663.711 57.5,675.23 32.4609,681.949 l 1.0196,1.063 C 16.5586,687.73 8.08984,690.121 8.08984,690.121 L 51.8008,965.309 47.6992,966.289 0,661.641 l 6.08984,-1.95 5.08206,-1.062 c 4.0586,-2.07 45.707,-11.789 124.8791,-29.41 78.519,-17.617 177,-33.867 295.508,-48.789" /><path
         id="path70"
         style="fill:#b8babd;fill-opacity:1;fill-rule:evenodd;stroke:none"
         d="m 1842.97,1578.63 133.98,-166.52 -7.07,-15.23 1.06,-2.08 -114.81,-231.48 30.47,-3.09 113.75,230.55 3.01,6.1 -155.31,191.87 -5.08,-10.12" /><path
         id="path72"
         style="fill:#b8babd;fill-opacity:1;fill-rule:evenodd;stroke:none"
         d="m 827.578,29.1016 c -0.738,-0.7422 -0.738,-0.7422 0,0 71.684,0 147.543,2.3476 227.422,7.1093 h 6.09 l 4.07,4.0586 c 8.08,6.1016 54.18,51.1016 138.08,135.0005 83.24,83.949 160.43,175.32 231.49,274.179 22.38,-0.617 68.08,-1.988 137.11,-4.058 69.1,-2.071 143.9,-3.403 224.41,-4.02 124.53,0.617 211.56,4.758 260.98,12.109 l 4.06,1.051 3.01,3.09 c 12.22,8.789 54.49,52.109 126.91,129.918 71.8,78.551 127.97,166.211 168.59,263.012 v 1.008 l 2.08,4.062 -156.45,260.979 -8.09,-12.22 137.07,-231.489 c -1.36,-4.731 -3.39,-10.161 -6.09,-16.25 l 2.03,-2.071 C 2292.46,767.969 2240.66,688.09 2174.96,615 2108.63,541.879 2065.66,497.191 2046.05,480.941 1997.97,473.48 1914.38,469.77 1795.2,469.77 c -92,0.699 -175,2.07 -248.75,4.019 -74.42,2.77 -114.07,4.449 -118.75,5.082 h -9.22 l -4.03,-7.031 C 1350.82,381.051 1279.41,295.469 1200.16,214.879 1121.02,134.34 1070.23,84.6094 1047.85,65.6602 970.738,60.8984 897.301,58.5195 827.578,58.5195 680,59.8398 567.93,67.6211 491.449,81.9102 414.961,96.1289 368.238,107.301 351.371,115.391 v 1.019 c -16.992,5.43 -25.082,8.43 -24.461,9.141 l 16.25,312.687 h -5.07 l -18.25,-342.1091 5.082,-2.0703 4.058,-1.9883 C 329.691,87.9297 368.871,77.1484 446.801,59.5313 524.609,41.2891 651.52,31.1289 827.578,29.1016" /><path
         id="path74"
         style="fill:#706e73;fill-opacity:1;fill-rule:evenodd;stroke:none"
         d="m 1968.87,1396.88 8.08,15.23 -133.98,166.52 -214.26,-397.07 224.41,-18.24 115.75,233.56" /><path
         id="path76"
         style="fill:#706e73;fill-opacity:1;fill-rule:evenodd;stroke:none"
         d="m 33.4805,683.012 c 32.539,-8.832 86.3205,-20.633 161.4415,-35.551 75.199,-14.922 161.84,-27.77 259.957,-38.551 L 668.121,864.73 51.8008,965.309 8.08984,689.102 c 0,0 8.46876,-2.071 25.39066,-6.09" /><path
         id="path78"
         style="fill:#706e73;fill-opacity:1;fill-rule:evenodd;stroke:none"
         d="m 1953.63,761.211 h -29.41 l -604.18,6.09 -337.149,-382.813 -27.379,2.032 -2.071,-2.032 -611.293,53.75 -16.168,-312.687 c 0,0 8.399,-3.012 25.391,-9.141 C 383.16,103.551 454.57,90 565.551,75.8203 676.602,61.6016 835.98,60.2695 1043.83,71.7617 c 7.42,5.3867 53.44,50.3863 138.08,135.0393 85.28,84.609 163.21,176.949 233.56,277.148 5.39,-0.629 48.71,-2.308 129.92,-5.078 81.25,-2.699 170.66,-4.031 268.16,-4.031 97.39,0.711 173.56,4.769 228.44,12.191 7.39,4.059 46.02,43.321 115.74,117.809 69.73,74.422 126.65,158.75 170.59,252.82 2.03,5.43 4.02,10.82 6.09,16.289 L 2196.29,1104.38 1953.63,761.211" /><path
         id="path80"
         style="fill:#ffffff;fill-opacity:1;fill-rule:evenodd;stroke:none"
         d="m 1627.66,1230.27 c -12.86,-29.72 -3.32,-47.34 28.47,-52.73 l 478.21,-39.61 c 31.17,-5.47 38.94,-22.03 23.39,-49.81 L 1957.7,805.859 c -18.99,-27.738 -24.69,-42.968 -17.23,-45.66 10.78,2.692 26.33,17.922 46.64,45.66 l 178.71,252.851 c 18.98,27.74 30.78,45.04 35.55,51.8 3.43,4.02 6.83,8.79 10.15,14.18 0.75,5.39 -15.54,9.84 -48.71,13.24 l -207.11,17.23 c -33.86,2.69 -54.49,4.45 -61.95,5.07 -4.77,0 -11.91,0.71 -21.37,2.07 -9.41,0.63 -15.19,1.02 -17.26,1.02 -4.07,0 -23.01,1.37 -56.8,4.06 l -113.79,10.16 c -31.8,5.39 -41.33,23.01 -28.4,52.73 l 161.45,299.57 c 16.25,29.81 25.7,47.74 28.4,53.87 2.07,3.32 4.76,7.77 8.16,13.17 -0.7,6.09 -17.58,10.85 -50.74,14.17 l -473.2,44.77 c -33.17,3.32 -51.8,4.65 -55.86,4.02 2.69,-1.32 20.62,-3.39 53.78,-6.09 l 447.82,-42.7 c 31.79,-6.01 41.33,-24.02 28.4,-53.78 l -176.68,-327" /><path
         id="path82"
         style="fill:#ffffff;fill-opacity:1;fill-rule:evenodd;stroke:none"
         d="m 952.422,1244.57 c -1.992,1.99 -19.613,5.39 -52.731,10.16 l -503.671,76.13 c -33.168,4.69 -51.801,6.76 -55.86,6.05 1.988,-1.99 19.61,-5.39 52.77,-10.15 l 503.629,-75.16 c 33.171,-5.39 51.8,-7.77 55.863,-7.03" /><path
         id="path84"
         style="fill:#ffffff;fill-opacity:1;fill-rule:evenodd;stroke:none"
         d="m 1284.49,725.66 c 20.94,25.078 28.09,38.871 21.33,41.641 -10.86,-2.031 -27.73,-15.93 -50.74,-41.641 L 993.051,428.121 c -21.68,-25.699 -29.102,-39.922 -22.313,-42.609 10.16,1.367 26.762,14.527 49.732,39.57 l 264.02,300.578" /><path
         id="path86"
         style="fill:#b0b5ba;fill-opacity:1;fill-rule:evenodd;stroke:none"
         d="m 692.461,1202.93 c 6.84,-1.37 -1.68,-13.28 -25.391,-35.55 L 501.602,1013.01 c -27.071,-20.311 -54.18,-20.311 -81.25,0 l -105.582,96.44 c -23.719,22.39 -32.821,35.24 -27.43,38.64 7.461,1.99 7.781,6.44 1.019,13.16 -4.769,6.76 9.45,12.85 42.692,18.24 l 322.859,43.71 c 32.539,3.36 45.391,0.67 38.551,-8.16 -8.789,-8.79 -8.789,-12.85 0,-12.11 m 868.159,244.73 c 10.16,-31.84 14.61,-49.11 13.25,-51.8 -2.03,-0.74 -2.03,-5.08 0,-13.28 -0.71,-7.35 -17.58,-10.16 -50.75,-8.09 l -258.94,17.31 c -32.5,2.69 -44.65,7.77 -36.56,15.23 10.15,6.72 10.15,10.78 0,12.15 -8.09,2.7 1.33,12.85 28.4,30.43 l 206.17,127.97 c 29.76,14.22 51.09,6.13 63.94,-24.34 l 34.49,-105.58 m 145.28,-371.68 c 16.25,29.14 39.57,36.56 70.04,22.3 l 150.23,-93.36 c 28.48,-18.318 39.3,-29.451 32.54,-33.549 -7.46,-2.699 -7.15,-7.07 1.02,-13.211 6.13,-6.09 -6.8,-13.859 -38.64,-23.32 l -247.73,-65.039 c -31.8,-8.082 -47.03,-7.77 -45.7,1.058 3.43,9.493 3.12,13.871 -1.02,13.243 -2.69,1.949 2.38,18.238 15.24,48.707 l 64.02,143.171 M 1039.77,658.629 c 10.85,-2.07 2.38,-11.481 -25.39,-28.399 L 732.109,468.711 C 702.301,454.531 683.32,463.32 675.23,495.16 l -19.25,128.981 c -5.468,33.16 -7.46,51.089 -6.14,53.789 1.371,0.699 1.371,5.39 0,14.179 2,8.161 19.609,11.911 52.781,11.172 L 1007.23,688.09 c 31.83,-2.738 42.69,-7.781 32.54,-15.238 -12.23,-8.122 -12.23,-12.852 0,-14.223 M 898.629,388.52 c 33.793,-2.7 52.781,-3.719 56.883,-3.008 2.687,2.687 15.226,16.91 37.539,42.609 L 1255.08,725.66 c 23.01,25.711 39.88,39.61 50.74,41.641 12.15,0 35.55,-0.391 70.08,-1.012 l 494.45,-5.078 c 33.24,-0.699 51.49,-0.699 54.88,0 2,1.988 12.86,16.91 32.47,44.648 l 200.03,282.261 c 15.55,27.78 7.78,44.34 -23.39,49.81 l -478.21,39.61 c -31.79,5.39 -41.33,23.01 -28.47,52.73 l 176.68,327 c 12.93,30.46 3.39,48.39 -28.4,53.78 l -447.82,42.7 c -33.78,2.7 -56.48,4.77 -67.96,6.09 -9.54,-2.07 -24.46,-16.56 -44.77,-43.71 l -228.48,-323.9 c -19.57,-27.78 -30.781,-43.32 -33.469,-46.72 -4.031,-1.33 -22.66,0.7 -55.82,6.09 l -503.672,75.16 c -33.789,4.76 -56.179,8.16 -67.039,10.15 -10.148,-1.36 -25.699,-15.23 -46.64,-41.6 L 64.9609,1013.01 c -20.3125,-27.069 -28.789,-42.311 -25.3906,-45.709 5.3906,-0.621 8.8281,-1.012 10.1602,-1.012 4.0586,-0.668 22.6914,-3.75 55.8595,-9.141 l 507.691,-83.199 c 31.168,-7.469 37.617,-24.461 19.297,-50.789 L 490.43,651.48 c -21.68,-25.699 -33.828,-40.191 -36.602,-43.628 -1.328,-2.032 -5.387,-7.114 -12.109,-15.231 -6.84,-8.09 -12.539,-14.891 -17.309,-20.281 -6.09,-8.121 -20,-25.07 -41.64,-50.781 L 351.371,483.012 C 330.309,457.23 322.23,442.699 326.91,439.301 c 6.84,0 11.18,-0.321 13.25,-1.063 5.391,0 24.68,-1.636 57.852,-5.039 L 898.629,388.52" /><path
         id="path88"
         style="fill:#706e73;fill-opacity:1;fill-rule:evenodd;stroke:none"
         d="m 1706.91,1050.59 c 16.18,28.39 39.26,35.54 69.03,21.36 l 121.83,-75.231 c 29.14,-17.5 49.46,-26.02 60.94,-25.348 6.09,4.098 -4.76,15.231 -32.54,33.549 l -151.25,92.42 c -29.76,14.81 -52.77,7.78 -69.02,-21.36 l -64.02,-143.171 c -12.86,-30.469 -17.93,-46.758 -15.24,-48.707 6.09,4.019 15.94,21.636 29.49,52.738 l 50.78,113.75" /><path
         id="path90"
         style="fill:#706e73;fill-opacity:1;fill-rule:evenodd;stroke:none"
         d="m 702.621,703.281 c -33.172,0.739 -50.781,-3.011 -52.781,-11.172 4.769,-8.789 23.68,-14.531 56.922,-17.23 l 255.816,-12.18 c 34.492,-1.371 60.272,2.031 77.192,10.153 10.15,7.457 -1.02,12.5 -33.48,15.238 l -303.669,15.191" /><path
         id="path92"
         style="fill:#706e73;fill-opacity:1;fill-rule:evenodd;stroke:none"
         d="m 330,1179.49 c -32.5,-5.39 -46.719,-11.79 -42.66,-19.26 10.859,-6.09 33.172,-7.07 67.039,-3 l 266.992,35.54 c 33.899,5.39 57.609,12.85 71.09,22.27 6.09,8.83 -6.762,11.21 -38.551,7.15 L 330,1179.49" /><path
         id="path94"
         style="fill:#706e73;fill-opacity:1;fill-rule:evenodd;stroke:none"
         d="m 1226.6,1419.18 c 14.18,1.33 36.25,10.86 65.98,28.48 l 169.61,104.53 c 29.76,14.92 51.09,7.15 63.94,-23.32 l 26.41,-80.28 c 10.16,-31.79 16.91,-49.41 20.31,-52.73 1.37,2.69 -3.01,19.96 -13.16,51.8 l -33.56,106.6 c -13.47,29.76 -34.84,37.54 -63.94,23.32 l -206.17,-127.97 c -27.7,-17.58 -37.54,-27.73 -29.42,-30.43" /><path
         id="path96"
         style="fill:#b0b5ba;fill-opacity:1;fill-rule:evenodd;stroke:none"
         d="m 1656.13,935.82 c -13.55,-31.09 -23.4,-53.09 -29.49,-66.019 -0.62,-8.082 14.92,-8.391 46.72,-0.93 l 247.73,65.969 c 31.84,8.832 44.77,16.609 38.64,23.32 -12.19,7.461 -33.13,20.32 -62.97,38.559 l -120.82,74.181 c -29.77,14.92 -52.85,7.77 -69.03,-21.33 l -50.78,-113.75" /><path
         id="path98"
         style="fill:#b0b5ba;fill-opacity:1;fill-rule:evenodd;stroke:none"
         d="m 648.828,677.93 c -0.707,-3.36 1.371,-21.68 6.094,-54.84 L 675.23,495.16 c 8.09,-31.84 26.758,-40.941 55.86,-27.39 l 282.27,162.46 c 27.73,16.18 36.56,25.711 26.41,28.399 -16.92,0.711 -42.7,2.07 -77.192,4.07 l -255.816,12.18 c -33.242,2 -52.543,3.051 -57.934,3.051" /><path
         id="path100"
         style="fill:#b0b5ba;fill-opacity:1;fill-rule:evenodd;stroke:none"
         d="m 287.34,1148.09 c -5.391,-2.78 3.711,-15.63 27.43,-38.64 l 105.582,-96.44 c 27.07,-20.311 54.179,-19.998 81.25,1.01 l 165.468,153.36 c 23.711,23.01 32.231,34.81 25.391,35.55 -13.481,-2.07 -37.191,-5.08 -71.09,-9.14 l -265.98,-36.56 c -34.493,-4.07 -57.192,-7.15 -68.051,-9.14" /><path
         id="path102"
         style="fill:#b0b5ba;fill-opacity:1;fill-rule:evenodd;stroke:none"
         d="m 1527.15,1529.84 c -13.56,29.81 -34.81,37.58 -63.95,23.4 l -170.62,-105.58 c -29.73,-18.32 -51.41,-31.84 -64.96,-40.63 -8.09,-7.46 4.06,-12.54 36.56,-15.23 l 258.94,-17.31 c 33.17,-2.07 50.04,1.06 50.75,9.14 -3.4,10.86 -10.47,32.5 -21.33,64.96 l -25.39,81.25" /></g></g></svg>